# xmcd
#
# Track frame offsets:
#	150
#	20864
#	37211
#	56312
#	79189
#	97735
#	115324
#	132219
#	149578
#	168379
#	188324
#	209315
#
# Disc length: 3043 seconds
# Revision: 0
# Processed by: cddbd v1.5.2PL0 Copyright (c) Steve Scherf et al.
# Submitted via: dBpowerAMP V12.0
#
DISCID=a20be10c
DTITLE=Various Artist - Digging For A Living
DYEAR=2018
DGENRE=R&B
TTITLE0=Aldo Vanucci feat. Dena Deadly - Ponderosa
TTITLE1=Aldo Vanucci feat. Boo La La - All My Life
TTITLE2=Aldo Vanucci feat. Kylie Auldist - You're All Show
TTITLE3=Aldo Vanucci feat. Amie J - Naive
TTITLE4=Aldo Vanucci feat. Amie J - Breaking The Rules
TTITLE5=Aldo Vanucci feat. ASM - Take Me To The Party
TTITLE6=Aldo Vanucci feat. Kylie Auldist - Get A Hold On This
TTITLE7=Aldo Vanucci feat. Kelly Hayden - Accumulation
TTITLE8=Aldo Vanucci - What Happened
TTITLE9=Aldo Vanucci feat. Amie J - I Think I'm Gonna Make It
TTITLE10=Aldo Vanucci - Knew You Were Coming
TTITLE11=Aldo Vanucci feat. QNC - Spell It Out
EXTD=
EXTT0=
EXTT1=
EXTT2=
EXTT3=
EXTT4=
EXTT5=
EXTT6=
EXTT7=
EXTT8=
EXTT9=
EXTT10=
EXTT11=
PLAYORDER=
